<?xml version="1.0" encoding="utf-8"?>
<!-- Generator: Adobe Illustrator 26.2.1, SVG Export Plug-In . SVG Version: 6.00 Build 0)  -->
<svg version="1.1" id="Layer_1" xmlns="http://www.w3.org/2000/svg" xmlns:xlink="http://www.w3.org/1999/xlink" x="0px" y="0px"
	 viewBox="0 0 61.9 62.8" style="enable-background:new 0 0 61.9 62.8;" xml:space="preserve">
<style type="text/css">
	.st0{fill:url(#SVGID_1_);}
	.st1{fill:url(#SVGID_00000057129738312925371290000005220078936899576984_);}
	.st2{fill:url(#SVGID_00000054267123892367141580000011417689965210999204_);}
</style>
<g id="a">
</g>
<g>
	<linearGradient id="SVGID_1_" gradientUnits="userSpaceOnUse" x1="0" y1="31.4" x2="17.2" y2="31.4">
		<stop  offset="0" style="stop-color:#F58B30"/>
		<stop  offset="0.4719" style="stop-color:#EA6648"/>
		<stop  offset="0.4861" style="stop-color:#EA6549"/>
		<stop  offset="1" style="stop-color:#E64A51"/>
	</linearGradient>
	<path class="st0" d="M13.1,43.1h-0.8V3c0-1.7-1.7-3-3.9-3S4.6,1.3,4.6,3v40.1H3.9c-2.1,0-3.9,1.3-3.9,3s1.7,3,3.9,3h0.8v10.7
		c0,1.7,1.7,3,3.9,3s3.9-1.3,3.9-3V49.1h0.8c2.1,0,3.9-1.3,3.9-3S15.2,43.1,13.1,43.1L13.1,43.1z"/>
	
		<linearGradient id="SVGID_00000011742862973198684670000009277733942658224788_" gradientUnits="userSpaceOnUse" x1="45.7" y1="31.4" x2="61.9" y2="31.4">
		<stop  offset="0" style="stop-color:#F58B30"/>
		<stop  offset="0.4719" style="stop-color:#EA6648"/>
		<stop  offset="0.4861" style="stop-color:#EA6549"/>
		<stop  offset="1" style="stop-color:#E64A51"/>
	</linearGradient>
	<path style="fill:url(#SVGID_00000011742862973198684670000009277733942658224788_);" d="M58.2,43.1h-0.7V3c0-1.7-1.7-3-3.7-3
		s-3.7,1.4-3.7,3v40.1h-0.7c-2.1,0-3.7,1.3-3.7,3s1.7,3,3.7,3h0.7v10.7c0,1.7,1.7,3,3.7,3s3.7-1.3,3.7-3V49.1h0.7
		c2.1,0,3.7-1.3,3.7-3S60.2,43.1,58.2,43.1z"/>
	
		<linearGradient id="SVGID_00000169560289017463246950000003868695891477435579_" gradientUnits="userSpaceOnUse" x1="23.1" y1="31.35" x2="40.3" y2="31.35">
		<stop  offset="0" style="stop-color:#F58B30"/>
		<stop  offset="0.4719" style="stop-color:#EA6648"/>
		<stop  offset="0.4861" style="stop-color:#EA6549"/>
		<stop  offset="1" style="stop-color:#E64A51"/>
	</linearGradient>
	<path style="fill:url(#SVGID_00000169560289017463246950000003868695891477435579_);" d="M36.4,29h-0.8V3c0-1.7-1.8-3-3.9-3
		s-3.9,1.4-3.9,3v26H27c-2.2,0-3.9,1.4-3.9,3c0,1.7,1.8,3,3.9,3h0.8v24.7c0,1.7,1.8,3,3.9,3c2.2,0,3.9-1.3,3.9-3V35h0.8
		c2.2,0,3.9-1.3,3.9-3S38.5,29,36.4,29z"/>
</g>
</svg>
