<?xml version="1.0" encoding="UTF-8"?><svg xmlns="http://www.w3.org/2000/svg" xmlns:xlink="http://www.w3.org/1999/xlink" viewBox="0 0 370.98 50"><defs><style>.l{fill:url(#e);}.m{fill:url(#d);}.n{fill:url(#g);}.o{fill:url(#f);}.p{fill:url(#i);}.q{fill:url(#h);}.r{fill:url(#k);}.s{fill:url(#j);}</style><linearGradient id="d" x1="0" y1="25.4" x2="36" y2="25.4" gradientTransform="matrix(1, 0, 0, 1, 0, 0)" gradientUnits="userSpaceOnUse"><stop offset="0" stop-color="#f68c30"/><stop offset=".46" stop-color="#eb6747"/><stop offset=".49" stop-color="#eb6549"/><stop offset="1" stop-color="#e64a51"/></linearGradient><linearGradient id="e" x1="38.34" y1="25" x2="89.51" y2="25" xlink:href="#d"/><linearGradient id="f" x1="93.59" y1="25" x2="144.75" y2="25" xlink:href="#d"/><linearGradient id="g" x1="149.86" x2="200.07" xlink:href="#d"/><linearGradient id="h" x1="205.85" x2="256.06" xlink:href="#d"/><linearGradient id="i" x1="306.82" x2="339.14" xlink:href="#d"/><linearGradient id="j" x1="343.22" x2="370.98" xlink:href="#d"/><linearGradient id="k" x1="261.85" y1="25.57" x2="308.44" y2="25.57" xlink:href="#d"/></defs><g id="a"/><g id="b"><g id="c"><path class="m" d="M32.93,49.2c-2.7,1.4-6.49,1-8.43-1.8L13.53,31.32h-1.16v13.36c0,2.93-2.78,5.32-6.26,5.32s-6.11-2.39-6.11-5.32V6.12C0,3.19,2.78,.8,6.11,.8h12.06c9.82,0,17.7,6.85,17.7,15.23,0,5.85-3.71,10.9-9.28,13.43l8.58,12.5c1.7,2.59,.7,5.72-2.24,7.25ZM18.17,11.44h-5.8v9.24h5.8c3.01,0,5.41-1.99,5.41-4.65s-2.4-4.59-5.41-4.59Z"/><path class="l" d="M89.51,25c0,13.83-11.43,25-25.58,25s-25.58-11.17-25.58-25S49.84,0,63.92,0s25.58,11.17,25.58,25Zm-40.28,0c0,7.98,6.46,14.43,14.63,14.43s14.76-6.58,14.76-14.43-6.74-14.43-14.76-14.43-14.63,6.45-14.63,14.43Z"/><path class="o" d="M144.75,25c0,13.83-11.43,25-25.58,25s-25.58-11.17-25.58-25S105.09,0,119.17,0s25.58,11.17,25.58,25Zm-40.28,0c0,7.98,6.46,14.43,14.63,14.43s14.76-6.58,14.76-14.43-6.74-14.43-14.76-14.43-14.63,6.45-14.63,14.43Z"/><path class="n" d="M200.07,6.12V44.68c0,2.93-2.45,5.32-5.44,5.32s-5.51-2.39-5.51-5.32V25.86l-9.87,19.75c-.88,1.73-2.58,2.66-4.29,2.66s-3.47-1-4.29-2.66l-9.93-19.75v18.82c0,2.93-2.45,5.32-5.51,5.32s-5.38-2.39-5.38-5.32V6.12c0-2.93,2.45-5.32,5.38-5.32s4.49,1.93,5.65,4.12c.41,.8,8.78,17.62,14.08,28.19,5.24-10.57,13.68-27.33,14.08-28.19,1.09-2.19,2.72-4.12,5.58-4.12s5.44,2.39,5.44,5.32Z"/><path class="q" d="M256.06,6.12V44.68c0,2.93-2.45,5.32-5.44,5.32s-5.51-2.39-5.51-5.32V25.86l-9.87,19.75c-.88,1.73-2.58,2.66-4.29,2.66s-3.47-1-4.29-2.66l-9.93-19.75v18.82c0,2.93-2.45,5.32-5.51,5.32s-5.38-2.39-5.38-5.32V6.12c0-2.93,2.45-5.32,5.38-5.32s4.49,1.93,5.65,4.12c.41,.8,8.78,17.62,14.08,28.19,5.24-10.57,13.68-27.33,14.08-28.19,1.09-2.19,2.72-4.12,5.58-4.12s5.44,2.39,5.44,5.32Z"/><path class="p" d="M339.14,6.12c0,2.93-2.45,5.32-5.51,5.32h-5.24V44.68c0,2.93-2.45,5.32-5.38,5.32s-5.44-2.39-5.44-5.32V11.44h-5.24c-3.06,0-5.51-2.39-5.51-5.32s2.45-5.32,5.51-5.32h21.3c3.06,0,5.51,2.39,5.51,5.32Z"/><path class="s" d="M370.98,44.75c0,2.86-2.45,5.25-5.38,5.25h-16.94c-2.99,0-5.44-2.39-5.44-5.25V6.05c0-2.86,2.45-5.25,5.44-5.25h16.94c2.93,0,5.38,2.39,5.38,5.25s-2.45,5.39-5.38,5.39h-11.5v9.31h10.89c2.65,0,4.76,2.13,4.76,4.65s-2.11,4.65-4.76,4.65h-10.89v9.31h11.5c2.93,0,5.38,2.39,5.38,5.39Z"/><path class="r" d="M306.51,17.63h0l-17.69-15.14c-2.08-1.8-5.35-1.8-7.43,0l-17.69,15.14c-1.19,1.01-1.86,2.52-1.86,4.04v22.85c0,2.96,2.53,5.41,5.57,5.41h4.6v.07h3.65v-15.42h18.74v15.42h8.46c3.05,0,5.57-2.45,5.57-5.41V21.74c-.07-1.59-.74-3.03-1.93-4.11Z"/></g></g></svg>