<?xml version="1.0" encoding="UTF-8"?><svg xmlns="http://www.w3.org/2000/svg" xmlns:xlink="http://www.w3.org/1999/xlink" viewBox="0 0 209.46 47.46"><defs><style>.j{fill:url(#e);}.k{fill:url(#d);}.l{fill:url(#g);}.m{fill:url(#f);}.n{fill:url(#i);}.o{fill:url(#h);}</style><linearGradient id="d" x1="0" y1="18.54" x2="41.94" y2="18.54" gradientTransform="matrix(1, 0, 0, 1, 0, 0)" gradientUnits="userSpaceOnUse"><stop offset="0" stop-color="#f68c30"/><stop offset=".46" stop-color="#eb6747"/><stop offset=".49" stop-color="#eb6549"/><stop offset="1" stop-color="#e64a51"/></linearGradient><linearGradient id="e" x1="45" y1="27.03" x2="75.42" y2="27.03" xlink:href="#d"/><linearGradient id="f" x1="79.56" y1="26.91" x2="109.68" y2="26.91" xlink:href="#d"/><linearGradient id="g" x1="113.34" y1="22.05" x2="141.18" y2="22.05" xlink:href="#d"/><linearGradient id="h" x1="146.1" y1="27" x2="175.14" y2="27" xlink:href="#d"/><linearGradient id="i" x1="180.18" y1="22.05" x2="209.46" y2="22.05" xlink:href="#d"/></defs><g id="a"/><g id="b"><g id="c"><g><path class="k" d="M25.92,27.66c-.52,.44-1.19,.79-2.01,1.05-.82,.26-1.77,.39-2.85,.39-1.44,0-2.63-.18-3.57-.54-.94-.36-1.55-.98-1.83-1.86-1.12-3.52-2.04-6.37-2.76-8.55-.72-2.18-1.28-4.09-1.68-5.73h-.3c-.12,2.36-.21,4.51-.27,6.45-.06,1.94-.1,3.83-.12,5.67-.02,1.84-.06,3.7-.12,5.58-.06,1.88-.15,3.96-.27,6.24-.52,.2-1.2,.37-2.04,.51s-1.68,.21-2.52,.21c-1.76,0-3.13-.28-4.11-.84-.98-.56-1.47-1.58-1.47-3.06L1.74,2.58c.32-.52,1.02-1.08,2.1-1.68,1.08-.6,2.6-.9,4.56-.9,2.12,0,3.78,.33,4.98,.99,1.2,.66,2.08,1.73,2.64,3.21,.36,.96,.75,2.06,1.17,3.3,.42,1.24,.84,2.52,1.26,3.84,.42,1.32,.83,2.63,1.23,3.93,.4,1.3,.76,2.47,1.08,3.51h.3c.96-3.36,1.92-6.61,2.88-9.75,.96-3.14,1.84-5.77,2.64-7.89,.6-.32,1.37-.59,2.31-.81,.94-.22,1.99-.33,3.15-.33,1.96,0,3.56,.29,4.8,.87,1.24,.58,1.96,1.41,2.16,2.49,.16,.8,.33,2.03,.51,3.69,.18,1.66,.37,3.53,.57,5.61,.2,2.08,.4,4.28,.6,6.6,.2,2.32,.39,4.55,.57,6.69,.18,2.14,.33,4.1,.45,5.88s.2,3.15,.24,4.11c-.68,.4-1.39,.69-2.13,.87s-1.69,.27-2.85,.27c-1.52,0-2.8-.26-3.84-.78-1.04-.52-1.6-1.54-1.68-3.06-.24-4.36-.39-8.28-.45-11.76-.06-3.48-.15-6.4-.27-8.76h-.3c-.4,1.56-.98,3.52-1.74,5.88-.76,2.36-1.68,5.38-2.76,9.06Z"/><path class="j" d="M51.48,29.16c-.44-1-.91-2.12-1.41-3.36-.5-1.24-1.02-2.66-1.56-4.26s-1.1-3.43-1.68-5.49c-.58-2.06-1.19-4.43-1.83-7.11,.56-.56,1.31-1.05,2.25-1.47,.94-.42,1.97-.63,3.09-.63,1.4,0,2.56,.29,3.48,.87s1.6,1.67,2.04,3.27l4.74,16.5h.24c.48-1.36,.95-2.84,1.41-4.44,.46-1.6,.91-3.25,1.35-4.95,.44-1.7,.85-3.4,1.23-5.1,.38-1.7,.71-3.37,.99-5.01,1.44-.76,3.02-1.14,4.74-1.14,1.4,0,2.56,.3,3.48,.9,.92,.6,1.38,1.64,1.38,3.12,0,1.08-.14,2.33-.42,3.75-.28,1.42-.65,2.93-1.11,4.53-.46,1.6-1,3.25-1.62,4.95s-1.27,3.37-1.95,5.01c-.68,1.64-1.38,3.19-2.1,4.65s-1.42,2.77-2.1,3.93c-1.12,1.96-2.16,3.56-3.12,4.8-.96,1.24-1.88,2.21-2.76,2.91-.88,.7-1.76,1.18-2.64,1.44-.88,.26-1.8,.39-2.76,.39-1.68,0-3.04-.5-4.08-1.5-1.04-1-1.66-2.3-1.86-3.9,1.28-1,2.56-2.11,3.84-3.33,1.28-1.22,2.44-2.47,3.48-3.75-.68-.2-1.41-.67-2.19-1.41-.78-.74-1.63-2.13-2.55-4.17Z"/><path class="m" d="M92.94,6.54c2.4,0,4.63,.31,6.69,.93,2.06,.62,3.83,1.57,5.31,2.85,1.48,1.28,2.64,2.89,3.48,4.83,.84,1.94,1.26,4.25,1.26,6.93s-.36,4.8-1.08,6.72-1.74,3.53-3.06,4.83c-1.32,1.3-2.91,2.27-4.77,2.91-1.86,.64-3.93,.96-6.21,.96-1.72,0-3.32-.26-4.8-.78v9.96c-.4,.12-1.04,.25-1.92,.39-.88,.14-1.78,.21-2.7,.21s-1.67-.06-2.37-.18c-.7-.12-1.29-.36-1.77-.72-.48-.36-.84-.85-1.08-1.47-.24-.62-.36-1.43-.36-2.43V13.68c0-1.08,.23-1.96,.69-2.64,.46-.68,1.09-1.3,1.89-1.86,1.24-.8,2.78-1.44,4.62-1.92,1.84-.48,3.9-.72,6.18-.72Zm.12,22.92c4.12,0,6.18-2.46,6.18-7.38,0-2.56-.51-4.46-1.53-5.7-1.02-1.24-2.49-1.86-4.41-1.86-.76,0-1.44,.09-2.04,.27-.6,.18-1.12,.39-1.56,.63v13.2c.48,.24,1,.44,1.56,.6,.56,.16,1.16,.24,1.8,.24Z"/><path class="l" d="M126.78,6.54c2.16,0,4.13,.22,5.91,.66,1.78,.44,3.3,1.11,4.56,2.01,1.26,.9,2.23,2.04,2.91,3.42,.68,1.38,1.02,3.01,1.02,4.89v13.44c0,1.04-.29,1.89-.87,2.55-.58,.66-1.27,1.23-2.07,1.71-2.6,1.56-6.26,2.34-10.98,2.34-2.12,0-4.03-.2-5.73-.6-1.7-.4-3.16-1-4.38-1.8-1.22-.8-2.16-1.82-2.82-3.06-.66-1.24-.99-2.68-.99-4.32,0-2.76,.82-4.88,2.46-6.36,1.64-1.48,4.18-2.4,7.62-2.76l7.86-.84v-.42c0-1.16-.51-1.99-1.53-2.49-1.02-.5-2.49-.75-4.41-.75-1.52,0-3,.16-4.44,.48-1.44,.32-2.74,.72-3.9,1.2-.52-.36-.96-.91-1.32-1.65-.36-.74-.54-1.51-.54-2.31,0-1.04,.25-1.87,.75-2.49,.5-.62,1.27-1.15,2.31-1.59,1.16-.44,2.53-.76,4.11-.96,1.58-.2,3.07-.3,4.47-.3Zm.48,23.58c.68,0,1.43-.07,2.25-.21,.82-.14,1.43-.33,1.83-.57v-4.8l-4.32,.36c-1.12,.08-2.04,.32-2.76,.72-.72,.4-1.08,1-1.08,1.8s.31,1.45,.93,1.95c.62,.5,1.67,.75,3.15,.75Z"/><path class="o" d="M161.64,6.54c2.28,0,4.35,.29,6.21,.87,1.86,.58,3.43,1.33,4.71,2.25,.8,.56,1.43,1.18,1.89,1.86,.46,.68,.69,1.56,.69,2.64v21c0,2.12-.4,3.95-1.2,5.49s-1.89,2.82-3.27,3.84c-1.38,1.02-3,1.77-4.86,2.25-1.86,.48-3.85,.72-5.97,.72-3.64,0-6.5-.49-8.58-1.47-2.08-.98-3.12-2.57-3.12-4.77,0-.92,.19-1.73,.57-2.43,.38-.7,.81-1.23,1.29-1.59,1.16,.64,2.47,1.18,3.93,1.62,1.46,.44,2.97,.66,4.53,.66,2.16,0,3.88-.36,5.16-1.08,1.28-.72,1.92-1.88,1.92-3.48v-.96c-1.64,.72-3.64,1.08-6,1.08-1.8,0-3.51-.27-5.13-.81s-3.04-1.38-4.26-2.52c-1.22-1.14-2.2-2.61-2.94-4.41-.74-1.8-1.11-3.94-1.11-6.42s.39-4.56,1.17-6.36c.78-1.8,1.86-3.29,3.24-4.47s3.02-2.06,4.92-2.64c1.9-.58,3.97-.87,6.21-.87Zm3.72,8.7c-.28-.16-.69-.32-1.23-.48-.54-.16-1.21-.24-2.01-.24-1.96,0-3.43,.55-4.41,1.65-.98,1.1-1.47,2.67-1.47,4.71,0,2.32,.49,3.99,1.47,5.01,.98,1.02,2.23,1.53,3.75,1.53,1.64,0,2.94-.38,3.9-1.14V15.24Z"/><path class="n" d="M196.86,37.56c-2.36,0-4.55-.33-6.57-.99-2.02-.66-3.78-1.65-5.28-2.97s-2.68-2.98-3.54-4.98c-.86-2-1.29-4.34-1.29-7.02s.43-4.91,1.29-6.81c.86-1.9,1.99-3.46,3.39-4.68,1.4-1.22,3-2.12,4.8-2.7,1.8-.58,3.64-.87,5.52-.87,2.12,0,4.05,.32,5.79,.96,1.74,.64,3.24,1.52,4.5,2.64,1.26,1.12,2.24,2.46,2.94,4.02,.7,1.56,1.05,3.26,1.05,5.1,0,1.36-.38,2.4-1.14,3.12-.76,.72-1.82,1.18-3.18,1.38l-14.82,2.22c.44,1.32,1.34,2.31,2.7,2.97,1.36,.66,2.92,.99,4.68,.99,1.64,0,3.19-.21,4.65-.63,1.46-.42,2.65-.91,3.57-1.47,.64,.4,1.18,.96,1.62,1.68s.66,1.48,.66,2.28c0,1.8-.84,3.14-2.52,4.02-1.28,.68-2.72,1.14-4.32,1.38-1.6,.24-3.1,.36-4.5,.36Zm-1.68-23.58c-.96,0-1.79,.16-2.49,.48-.7,.32-1.27,.73-1.71,1.23-.44,.5-.77,1.06-.99,1.68-.22,.62-.35,1.25-.39,1.89l10.26-1.68c-.12-.8-.56-1.6-1.32-2.4-.76-.8-1.88-1.2-3.36-1.2Z"/></g></g></g></svg>